<svg version="1.0" xmlns="http://www.w3.org/2000/svg" width="70" height="70" viewBox="0 0 512.000000 512.000000" preserveAspectRatio="xMidYMid meet"><g transform="translate(0.000000,512.000000) scale(0.100000,-0.100000)" fill="#000000" stroke="none"><path d="M1717 5109 c-101 -24 -209 -114 -250 -207 -13 -31 -55 -194 -93 -361
                    -38 -167 -73 -305 -79 -307 -143 -49 -215 -105 -267 -212 l-33 -67 -3 -1057
                    -2 -1058 75 0 75 0 0 1033 c0 1017 1 1033 21 1077 25 56 53 86 104 113 40 22
                    47 22 676 25 l636 3 2 55 c3 105 67 94 -565 94 -524 0 -555 1 -550 18 3 9 12
                    49 20 87 29 137 106 465 116 489 5 14 25 43 45 65 66 72 53 71 731 71 l602 0
                    53 -28 c91 -47 100 -68 174 -393 36 -158 65 -292 65 -298 0 -8 -79 -11 -269
                    -11 l-269 0 -4 -75 -3 -74 350 -3 351 -3 48 -25 c64 -33 104 -90 116 -165 6
                    -36 10 -415 10 -943 l0 -883 73 3 72 3 3 178 2 177 75 0 c125 0 171 15 231 75
                    70 70 77 103 72 388 -3 245 -7 261 -71 327 -47 48 -89 62 -204 68 l-101 5 -4
                    321 c-4 302 -5 324 -26 376 -45 112 -139 201 -247 232 -22 6 -41 12 -42 13 -1
                    1 -34 140 -73 311 -49 218 -79 327 -100 371 -36 72 -96 130 -179 170 l-56 28
                    -635 2 c-351 1 -652 -3 -673 -8z m2230 -1993 l28 -24 3 -224 c3 -216 2 -225
                    -18 -251 -21 -26 -25 -27 -116 -27 l-94 0 0 275 0 275 84 0 c75 0 88 -3 113
                    -24z"></path><path d="M2020 4745 l0 -75 75 0 75 0 0 75 0 75 -75 0 -75 0 0 -75z"></path><path d="M2320 4745 l0 -75 200 0 200 0 0 75 0 75 -200 0 -200 0 0 -75z"></path><path d="M1617 3829 c-83 -20 -154 -75 -195 -153 -22 -42 -27 -65 -27 -126 0
                    -121 19 -150 262 -393 l209 -207 220 222 c200 201 223 228 239 277 22 68 17
                    169 -13 226 -26 51 -84 106 -142 136 -69 35 -168 33 -247 -7 l-61 -29 -33 21
                    c-37 22 -114 45 -151 43 -13 -1 -40 -5 -61 -10z m103 -149 c21 -6 57 -32 89
                    -64 l54 -55 62 58 c39 36 75 60 95 65 85 17 170 -49 170 -132 0 -24 -5 -53
                    -11 -65 -15 -29 -301 -317 -315 -317 -6 0 -76 66 -156 148 -104 105 -149 158
                    -158 185 -23 71 7 137 75 168 47 22 49 22 95 9z"></path><path d="M2520 3635 l0 -75 375 0 375 0 0 75 0 75 -375 0 -375 0 0 -75z"></path><path d="M2520 3335 l0 -75 75 0 76 0 -3 73 -3 72 -72 3 -73 3 0 -76z"></path><path d="M2820 3335 l0 -75 75 0 75 0 0 75 0 75 -75 0 -75 0 0 -75z"></path><path d="M3120 3335 l0 -75 75 0 75 0 0 75 0 75 -75 0 -75 0 0 -75z"></path><path d="M2522 2264 c-139 -279 -257 -503 -261 -498 -5 5 -64 115 -131 244
                    -68 129 -154 295 -192 368 -38 72 -71 132 -72 132 -2 0 -45 -84 -96 -187 -51
                    -104 -98 -191 -104 -195 -6 -4 -80 -8 -163 -8 l-153 0 0 -75 0 -75 205 0 205
                    0 53 107 54 107 35 -65 c34 -61 181 -340 304 -576 33 -62 61 -113 64 -112 3 0
                    116 225 253 499 136 275 251 500 256 500 5 0 59 -98 121 -217 62 -120 117
                    -224 122 -230 8 -10 58 -13 189 -13 l179 0 0 75 0 75 -134 0 c-95 0 -136 4
                    -143 13 -6 6 -54 98 -108 202 -116 225 -226 435 -228 435 -1 0 -116 -228 -255
                    -506z"></path><path d="M3598 1563 c-4 -393 -4 -398 -66 -459 -17 -17 -48 -40 -69 -50 -37
                    -18 -77 -19 -1098 -19 l-1060 0 -40 22 c-51 27 -79 57 -104 113 -19 41 -21 65
                    -21 283 l0 237 -76 0 -75 0 3 -263 3 -263 33 -66 c52 -107 124 -163 267 -212
                    6 -2 41 -140 79 -307 38 -167 79 -329 93 -360 32 -72 110 -150 188 -185 51
                    -24 77 -28 173 -32 l112 -5 0 77 0 76 -83 0 c-50 0 -102 6 -130 16 -49 17
                    -110 75 -128 121 -5 15 -37 146 -70 292 -33 146 -62 274 -65 284 -5 16 42 17
                    900 17 723 0 906 -3 906 -13 0 -7 -29 -140 -65 -297 -73 -316 -83 -340 -162
                    -387 l-48 -28 -445 -3 c-334 -2 -446 -6 -452 -15 -4 -7 -8 -40 -8 -75 l0 -63
                    468 3 467 3 56 28 c83 40 143 98 179 170 21 44 50 153 100 370 38 170 70 311
                    70 313 0 2 8 4 18 4 34 0 142 60 185 102 55 56 96 138 107 219 5 35 10 209 10
                    387 l0 322 -74 0 -74 0 -4 -357z"></path><path d="M2020 375 l0 -75 75 0 75 0 0 75 0 75 -75 0 -75 0 0 -75z"></path><path d="M2320 375 l0 -75 200 0 200 0 0 75 0 75 -200 0 -200 0 0 -75z"></path></g></svg>