<svg version="1.0" xmlns="http://www.w3.org/2000/svg" width="70.000000pt" height="70.000000pt" style="width:70;height:70" viewBox="0 0 512.000000 512.000000" preserveAspectRatio="xMidYMid meet"><g transform="translate(0.000000,512.000000) scale(0.100000,-0.100000)" fill="#000000" stroke="none"><path d="M791 5004 c-20 -25 -21 -39 -21 -281 l0 -255 -255 -340 -255 -340 0
                    -936 0 -937 -49 -43 c-33 -28 -61 -65 -83 -109 -31 -63 -33 -75 -33 -168 0
                    -89 3 -106 27 -150 14 -27 44 -71 67 -96 47 -53 171 -139 248 -171 29 -12 53
                    -24 52 -27 0 -3 -32 -29 -72 -56 -221 -154 -260 -394 -90 -556 81 -78 194
                    -129 288 -129 161 0 378 128 624 368 l120 117 12 -50 c25 -107 101 -217 202
                    -292 122 -90 370 -192 632 -258 309 -79 897 -161 1385 -195 189 -13 629 -13
                    761 0 347 34 508 122 509 276 0 114 -111 254 -330 418 -58 44 -108 82 -113 86
                    -4 3 24 27 61 53 92 63 244 222 315 328 107 161 192 377 222 561 34 208 12
                    503 -53 718 -108 357 -303 590 -567 677 -68 22 -98 27 -195 27 -133 0 -208
                    -16 -344 -75 -50 -21 -91 -37 -91 -36 -1 1 -9 43 -19 92 -9 50 -48 182 -86
                    294 -83 241 -100 333 -83 450 11 74 31 140 67 223 l16 38 -70 35 c-38 19 -74
                    35 -79 35 -28 0 -100 -244 -108 -365 -8 -127 14 -237 92 -460 36 -103 71 -220
                    79 -259 20 -101 28 -193 18 -200 -5 -3 -37 14 -73 38 -166 111 -318 172 -471
                    191 l-57 6 -3 267 -3 267 -257 344 -258 344 0 257 c0 255 0 257 -23 278 l-23
                    22 -806 0 -807 0 -20 -26z m1509 -314 l0 -170 -680 0 -680 0 0 170 0 170 680
                    0 680 0 0 -170z m-92 -349 c-1 -4 -86 -119 -188 -255 l-185 -246 -658 0 c-362
                    0 -657 4 -655 9 2 4 86 119 188 255 l185 246 658 0 c362 0 657 -4 655 -9z
                    m353 -274 l166 -222 -168 -3 c-93 -1 -245 -1 -338 0 l-170 3 167 223 c92 122
                    169 222 172 222 3 0 80 -101 171 -223z m-771 -652 l0 -255 -680 0 -680 0 0
                    255 0 255 680 0 680 0 0 -255z m1030 35 l0 -219 -42 -12 c-61 -16 -154 -65
                    -219 -115 -230 -177 -384 -515 -419 -924 -6 -68 -7 -165 -4 -214 l7 -89 -39 6
                    c-21 4 -63 7 -91 7 l-53 0 0 890 0 890 430 0 430 0 0 -220z m307 -396 c89 -23
                    227 -92 332 -166 52 -38 98 -68 103 -68 13 0 9 -30 -15 -102 l-22 -68 -50 23
                    c-28 13 -65 41 -83 61 l-33 37 -66 -38 c-36 -21 -68 -44 -71 -51 -2 -7 27 -44
                    66 -81 75 -75 139 -106 242 -121 131 -18 280 37 369 137 28 31 51 60 51 65 0
                    4 -32 26 -70 48 l-71 41 -38 -43 c-22 -24 -42 -40 -45 -37 -4 3 0 32 8 63 8
                    31 18 83 22 115 l6 59 72 41 c198 113 401 137 563 66 197 -88 365 -344 435
                    -668 19 -86 22 -133 22 -302 0 -173 -3 -212 -22 -287 -84 -334 -281 -615 -532
                    -756 l-55 -31 -109 65 c-306 183 -760 410 -1141 569 -253 106 -414 161 -632
                    215 -38 10 -42 13 -49 53 -4 23 -7 103 -6 178 4 502 239 923 555 994 71 17
                    175 12 264 -11z m-1337 -636 l-1 -573 -49 -23 c-27 -13 -71 -43 -99 -68 l-49
                    -44 -12 57 c-76 377 -193 632 -338 738 -67 49 -149 68 -264 63 -115 -5 -186
                    -35 -247 -105 -98 -110 -108 -292 -25 -454 13 -27 24 -50 24 -52 0 -2 -24 0
                    -52 4 -29 4 -97 8 -150 8 l-98 1 0 510 0 510 680 0 680 0 0 -572z m-695 -29
                    c106 -29 212 -223 290 -531 30 -117 65 -315 65 -368 0 -58 -75 -307 -104 -345
                    -62 -81 -221 -247 -312 -326 -171 -148 -299 -225 -393 -236 -40 -4 -60 0 -107
                    21 -162 74 -189 192 -72 308 55 55 117 92 243 143 107 44 133 70 121 121 -11
                    41 -38 59 -132 88 -141 44 -300 125 -361 185 -59 58 -77 103 -71 172 17 176
                    218 223 565 133 51 -13 103 -24 114 -24 28 0 79 53 79 83 0 14 -24 56 -55 98
                    -31 41 -74 112 -98 158 -39 78 -42 91 -42 162 0 88 16 121 76 151 39 21 133
                    24 194 7z m1062 -684 c122 -17 403 -86 403 -99 0 -3 -64 -225 -104 -363 -20
                    -68 -52 -178 -72 -245 -23 -79 -32 -123 -25 -128 15 -9 151 -43 155 -39 1 2
                    48 164 105 359 56 195 103 356 105 357 5 5 249 -95 421 -172 284 -127 921
                    -459 968 -505 5 -4 -10 -74 -33 -155 -34 -118 -39 -149 -29 -156 8 -4 42 -16
                    77 -25 52 -14 65 -15 72 -4 4 7 23 64 40 126 l33 113 59 -40 c108 -74 257
                    -200 303 -256 58 -71 66 -100 34 -124 -31 -23 -142 -55 -249 -71 -127 -19
                    -776 -16 -994 5 -92 9 -170 18 -172 20 -2 2 14 66 36 142 22 76 39 139 38 140
                    -6 5 -140 45 -152 45 -6 0 -31 -70 -55 -155 -33 -118 -47 -155 -60 -155 -33 0
                    -430 61 -561 86 -478 90 -813 226 -913 371 -78 114 -78 285 3 538 83 258 177
                    366 341 394 79 13 113 12 226 -4z"></path><path d="M3940 3996 c-101 -29 -212 -111 -251 -188 -25 -50 -24 -66 9 -119
                    135 -211 445 -251 632 -83 58 52 100 112 100 141 0 60 -91 168 -181 214 -94
                    48 -214 61 -309 35z m233 -189 c72 -43 75 -51 26 -86 -81 -59 -190 -66 -273
                    -17 -69 40 -73 50 -32 81 55 42 103 56 173 51 43 -2 75 -11 106 -29z"></path></g></svg>