<svg version="1.0" xmlns="http://www.w3.org/2000/svg" width="70" height="70" viewBox="0 0 512.000000 512.000000" preserveAspectRatio="xMidYMid meet"><g transform="translate(0.000000,512.000000) scale(0.100000,-0.100000)" fill="#000000" stroke="none"><path d="M890 5019 c-239 -61 -409 -233 -470 -473 -46 -181 -8 -374 104 -530
                25 -33 251 -267 503 -518 428 -427 461 -458 493 -458 32 0 63 29 457 423 394
                394 423 425 423 457 0 32 -31 65 -457 493 -252 252 -486 478 -519 503 -156
                112 -353 150 -534 103z m318 -167 c29 -11 74 -34 100 -51 26 -17 184 -168 352
                -336 l305 -305 -343 -342 -342 -343 -308 308 c-328 328 -364 372 -394 486 -44
                171 -1 336 122 461 105 108 221 153 370 146 52 -3 107 -12 138 -24z m937 -872
                l60 -60 -343 -343 -342 -342 -62 63 -63 62 340 340 c187 187 342 340 345 340
                3 0 32 -27 65 -60z"></path><path d="M3925 5022 c-182 -48 -210 -70 -742 -604 -432 -433 -463 -466 -463
                -498 0 -32 29 -63 423 -457 394 -394 425 -423 457 -423 32 0 65 31 493 458
                252 251 478 485 503 518 257 357 89 863 -331 994 -98 31 -247 36 -340 12z
                m264 -157 c35 -9 87 -28 115 -43 65 -35 163 -133 198 -198 78 -145 73 -337
                -11 -476 -22 -36 -145 -167 -343 -365 l-308 -308 -342 343 -343 342 308 308
                c198 198 329 321 365 343 104 63 237 83 361 54z m-804 -1165 l340 -340 -63
                -62 -62 -63 -342 342 -343 343 60 60 c33 33 62 60 65 60 3 0 158 -153 345
                -340z"></path><path d="M2480 3600 l0 -80 80 0 80 0 0 80 0 80 -80 0 -80 0 0 -80z"></path><path d="M2160 3360 l0 -80 80 0 80 0 0 80 0 80 -80 0 -80 0 0 -80z"></path><path d="M2800 3360 l0 -80 80 0 80 0 0 80 0 80 -80 0 -80 0 0 -80z"></path><path d="M2320 3040 l0 -80 80 0 80 0 0 80 0 80 -80 0 -80 0 0 -80z"></path><path d="M2640 3040 l0 -80 80 0 80 0 0 80 0 80 -80 0 -80 0 0 -80z"></path><path d="M2000 2880 l0 -80 80 0 80 0 0 80 0 80 -80 0 -80 0 0 -80z"></path><path d="M2960 2880 l0 -80 80 0 80 0 0 80 0 80 -80 0 -80 0 0 -80z"></path><path d="M855 2790 c-345 -75 -540 -427 -416 -751 87 -227 318 -374 562 -356
                172 13 331 107 427 252 71 107 104 253 85 378 -41 276 -255 471 -528 482 -49
                2 -108 0 -130 -5z m265 -186 l61 -27 -278 -279 -278 -279 -30 63 c-27 56 -30
                73 -30 158 0 86 3 101 32 162 40 85 97 147 172 186 78 42 122 52 212 48 57 -3
                93 -11 139 -32z m235 -365 c0 -90 -2 -99 -37 -171 -45 -91 -103 -147 -196
                -191 -61 -29 -76 -32 -162 -32 -82 0 -103 4 -152 27 -32 15 -58 30 -58 35 0 4
                123 131 273 281 l272 273 30 -63 c27 -56 30 -73 30 -159z"></path><path d="M2480 2720 l0 -80 80 0 80 0 0 80 0 80 -80 0 -80 0 0 -80z"></path><path d="M3495 2554 c-105 -21 -136 -30 -193 -55 -36 -17 -93 -49 -126 -73
                -34 -24 -267 -251 -519 -504 l-458 -460 -47 18 c-101 38 -173 42 -842 38
                l-645 -3 -80 -28 c-125 -44 -202 -92 -291 -181 -90 -90 -143 -175 -182 -294
                -22 -67 -26 -94 -26 -212 0 -118 4 -145 26 -212 86 -258 295 -444 556 -494
                109 -21 1276 -20 1386 0 154 30 295 110 402 230 l57 64 71 -26 c63 -22 87 -25
                211 -26 110 -1 153 3 200 18 70 22 162 66 224 109 53 36 868 848 935 930 53
                67 105 166 132 252 26 85 26 305 0 390 -37 122 -94 214 -190 311 -78 78 -104
                98 -186 137 -54 26 -128 52 -172 61 -71 15 -194 19 -243 10z m275 -184 c270
                -91 430 -380 365 -658 -32 -135 -70 -189 -286 -407 l-198 -200 -398 398 -398
                398 187 184 c103 102 215 203 248 224 56 36 145 72 210 85 56 11 206 -3 270
                -24z m-630 -985 l395 -396 -200 -198 c-171 -169 -211 -204 -272 -235 -87 -43
                -175 -66 -261 -66 -63 0 -198 25 -206 39 -3 4 4 38 15 76 73 261 -7 541 -206
                723 l-58 53 29 32 c49 55 359 367 364 367 3 0 183 -178 400 -395z m-1860 -585
                l0 -560 -264 0 c-145 0 -285 4 -312 9 -349 66 -549 420 -425 752 56 149 192
                278 344 328 88 28 85 28 385 30 l272 1 0 -560z m810 533 c187 -69 303 -187
                366 -373 28 -83 26 -243 -4 -332 -57 -166 -187 -298 -355 -359 -58 -21 -81
                -23 -359 -27 l-298 -4 0 562 0 562 298 -4 c270 -4 302 -6 352 -25z"></path><path d="M4450 1026 c-130 -28 -263 -136 -321 -261 -190 -406 230 -826 636
                -636 91 42 176 126 221 216 180 364 -138 768 -536 681z m259 -186 c69 -37 99
                -69 139 -144 22 -43 26 -64 26 -136 1 -78 -2 -90 -33 -148 -38 -70 -69 -100
                -145 -140 -44 -23 -63 -27 -136 -26 -72 0 -93 4 -136 26 -75 39 -107 70 -145
                140 -31 58 -34 70 -34 148 0 79 3 90 36 150 87 159 270 214 428 130z"></path></g></svg>