<svg version="1.0" xmlns="http://www.w3.org/2000/svg" width="70" height="70" viewBox="0 0 512.000000 512.000000" preserveAspectRatio="xMidYMid meet"><g transform="translate(0.000000,512.000000) scale(0.100000,-0.100000)" fill="#000000" stroke="none"><path d="M400 5102 c-61 -33 -75 -70 -75 -202 0 -97 3 -120 20 -149 35 -59 72
                    -71 217 -71 l128 0 0 -219 0 -219 -92 -4 c-134 -6 -195 -43 -249 -148 -20 -40
                    -23 -63 -27 -201 l-4 -156 -40 -18 c-59 -26 -113 -84 -137 -149 -21 -56 -21
                    -69 -21 -709 0 -359 3 -661 6 -673 3 -11 18 -28 34 -37 26 -15 92 -17 732 -17
                    l703 0 -5 -960 -5 -960 -28 -27 -27 -28 -595 0 -595 0 -32 33 -33 32 -3 835
                    -2 834 -27 20 c-32 26 -64 27 -94 2 l-24 -19 -3 -823 c-3 -901 -4 -882 56
                    -965 16 -21 53 -52 83 -69 l54 -30 620 0 620 0 41 22 c53 28 121 105 134 152
                    6 23 10 614 10 1699 0 1416 -2 1668 -14 1697 -22 51 -92 121 -142 142 l-44 18
                    0 156 c0 152 -1 158 -28 210 -31 60 -93 113 -150 129 -20 5 -70 10 -109 10
                    l-73 0 0 220 0 220 221 0 222 0 106 -98 c167 -154 164 -152 227 -152 53 0 58
                    2 111 53 31 28 73 74 94 100 33 41 39 56 39 95 0 27 -7 59 -18 75 -21 33 -311
                    299 -366 336 l-40 26 -670 3 c-641 2 -673 2 -706 -16z m1367 -164 c98 -84 273
                    -252 273 -262 0 -7 -20 -31 -44 -55 l-43 -42 -136 125 -137 126 -605 0 -605 0
                    0 70 0 70 630 0 629 0 38 -32z m-737 -478 l0 -220 -95 0 -95 0 0 220 0 220 95
                    0 95 0 0 -220z m309 -384 c43 -23 51 -54 51 -202 l0 -134 -457 2 -458 3 0 135
                    c0 147 10 180 58 200 12 5 192 9 400 9 309 1 383 -2 406 -13z m198 -506 c17
                    -10 36 -28 42 -38 7 -13 11 -143 11 -353 l1 -334 -658 0 -658 0 0 332 c0 321
                    1 332 21 360 40 54 26 53 639 53 547 0 571 -1 602 -20z m56 -1082 l-2 -203
                    -661 -3 -660 -2 0 205 0 205 663 0 662 0 -2 -202z"></path><path d="M4645 5095 c-21 -20 -25 -34 -25 -80 l0 -55 -58 0 c-64 0 -85 -13
                    -97 -61 -5 -19 0 -33 18 -54 19 -23 34 -29 80 -33 l57 -4 0 -52 c0 -63 27 -96
                    77 -96 45 0 73 39 73 100 l0 48 56 4 c67 6 98 31 96 80 -1 47 -31 68 -98 68
                    l-54 0 0 55 c0 46 -4 60 -25 80 -13 14 -36 25 -50 25 -14 0 -37 -11 -50 -25z"></path><path d="M3655 4718 c-90 -32 -136 -104 -143 -219 l-5 -79 -72 0 c-131 0 -214
                    -71 -223 -189 -5 -73 9 -118 51 -161 47 -49 101 -70 178 -70 l66 0 5 -78 c5
                    -96 33 -150 96 -192 75 -50 163 -50 237 1 64 44 94 113 95 217 l0 52 68 0 c87
                    0 157 32 198 92 26 37 29 50 29 119 0 70 -3 81 -30 120 -44 62 -101 89 -190
                    89 l-72 0 -5 80 c-4 65 -10 88 -34 127 -50 82 -160 122 -249 91z m111 -152
                    c16 -12 20 -31 24 -136 7 -159 8 -160 160 -160 119 0 140 -9 140 -57 0 -53
                    -22 -63 -140 -63 -93 0 -111 -3 -134 -21 -25 -20 -26 -24 -26 -130 0 -103 -1
                    -111 -25 -134 -13 -14 -31 -25 -40 -25 -9 0 -27 11 -40 25 -24 23 -25 31 -25
                    134 0 106 -1 110 -26 130 -23 18 -41 21 -132 21 -117 0 -142 11 -142 59 0 51
                    10 56 139 61 158 7 154 3 161 161 4 104 8 123 24 135 11 8 29 14 41 14 12 0
                    30 -6 41 -14z"></path><path d="M2215 3563 c-89 -47 -116 -102 -123 -251 l-5 -113 -36 -19 c-48 -24
                    -96 -74 -121 -125 -20 -40 -20 -64 -20 -1463 0 -1201 2 -1427 14 -1455 18 -41
                    64 -90 107 -113 33 -18 89 -19 1419 -19 l1385 0 40 22 c90 48 120 106 119 233
                    0 110 -18 157 -80 208 -45 37 -101 52 -198 52 -42 0 -76 1 -76 3 0 1 7 20 15
                    42 33 91 7 266 -57 388 -43 82 -173 212 -255 255 -34 18 -96 41 -139 52 -73
                    19 -112 20 -753 20 -740 0 -738 0 -862 -60 -131 -62 -233 -164 -296 -295 -65
                    -137 -80 -287 -38 -387 7 -17 -2 -18 -98 -18 -95 0 -105 2 -102 18 2 9 4 565
                    4 1234 l1 1218 29 32 29 33 584 3 c518 3 586 1 613 -13 63 -33 60 10 63 -801
                    3 -818 -2 -763 64 -779 22 -6 33 -1 58 23 l30 31 -2 743 -3 743 -28 57 c-28
                    57 -80 108 -131 127 -26 10 -26 12 -26 104 0 124 -18 184 -71 231 -22 20 -51
                    41 -65 46 -15 6 -219 10 -492 10 -406 -1 -471 -3 -497 -17z m959 -155 c12 -16
                    16 -47 16 -110 l0 -88 -476 0 -476 0 4 93 c2 60 8 100 17 110 12 15 57 17 457
                    17 l443 0 15 -22z m1069 -2320 c166 -80 277 -249 277 -423 0 -56 -21 -96 -66
                    -126 -28 -18 -66 -19 -999 -19 -921 0 -972 1 -1004 18 -65 35 -83 103 -60 214
                    36 170 159 305 323 358 58 18 93 19 756 17 l695 -2 78 -37z m582 -743 c20 -19
                    25 -34 25 -75 0 -55 -20 -104 -45 -114 -9 -3 -619 -6 -1355 -6 l-1339 0 -27
                    23 c-23 20 -26 30 -25 85 1 63 14 98 41 106 8 2 619 4 1358 5 l1343 1 24 -25z"></path><path d="M2593 2706 c-91 -22 -164 -65 -238 -140 -79 -80 -119 -151 -141 -254
                    -19 -90 -18 -135 6 -226 26 -104 63 -169 136 -241 250 -248 670 -177 820 140
                    105 220 51 464 -137 621 -118 99 -291 137 -446 100z m278 -170 c72 -36 134
                    -98 172 -171 29 -55 31 -68 31 -155 0 -83 -3 -102 -27 -150 -55 -115 -149
                    -187 -272 -209 -243 -45 -469 187 -415 428 29 130 101 214 229 268 78 33 202
                    28 282 -11z"></path><path d="M2669 2263 c-77 -75 -89 -91 -89 -120 0 -42 30 -73 71 -73 26 0 47
                    15 117 84 73 71 85 88 85 116 0 38 -40 80 -75 80 -12 0 -56 -34 -109 -87z"></path></g></svg>