<svg version="1.0" xmlns="http://www.w3.org/2000/svg" width="70" height="70" viewBox="0 0 512.000000 512.000000" preserveAspectRatio="xMidYMid meet"><g transform="translate(0.000000,512.000000) scale(0.100000,-0.100000)" fill="#000000" stroke="none"><path d="M1323 5106 c-105 -34 -176 -99 -219 -204 -19 -47 -24 -75 -24 -158 0
                    -92 2 -102 23 -121 33 -31 62 -36 97 -18 40 21 50 49 50 142 0 97 27 150 93
                    182 43 21 49 21 1013 21 919 0 971 -1 1009 -19 88 -40 104 -85 104 -291 0
                    -206 -16 -251 -104 -291 -38 -18 -89 -19 -971 -19 -902 0 -933 -1 -955 -19
                    -23 -18 -24 -27 -30 -173 -5 -136 -9 -160 -31 -208 -23 -52 -115 -161 -424
                    -508 -50 -57 -106 -129 -123 -161 -64 -121 -61 -43 -61 -1496 0 -1455 -3
                    -1375 62 -1498 65 -122 208 -228 346 -256 36 -8 371 -11 1057 -11 l1004 0 26
                    23 c35 29 37 89 6 121 l-22 21 -1027 5 -1027 5 -56 27 c-124 62 -190 165 -197
                    311 l-4 87 1054 0 c1052 0 1055 0 1082 21 39 31 37 88 -5 123 l-31 26 -1049 0
                    -1049 0 2 1168 3 1167 27 55 c18 36 112 152 271 332 151 172 255 298 274 335
                    40 75 63 171 63 261 l0 71 903 3 902 3 58 29 c70 36 130 99 165 174 27 56 27
                    60 27 272 0 212 0 216 -27 272 -35 75 -95 138 -165 174 l-58 29 -1010 2 c-816
                    2 -1018 -1 -1052 -11z"></path><path d="M3289 3821 c-31 -31 -36 -59 -17 -94 6 -12 72 -91 147 -176 75 -85
                    166 -189 202 -230 l67 -76 -1121 -3 -1121 -2 -23 -22 c-23 -21 -30 -67 -17
                    -103 18 -46 -11 -45 1212 -45 l1150 0 6 -22 c3 -13 6 -263 6 -556 0 -499 -1
                    -533 -17 -538 -189 -58 -305 -160 -365 -319 -22 -59 -22 -67 -26 -621 -2 -483
                    -1 -571 13 -629 60 -262 318 -429 577 -374 125 27 259 123 323 233 64 109 65
                    123 65 736 0 600 -1 614 -54 719 -55 108 -183 212 -298 242 l-47 13 -3 575
                    c-3 562 -4 578 -25 641 -28 81 -68 145 -147 235 -246 279 -380 426 -396 435
                    -32 17 -60 11 -91 -19z m714 -2065 c64 -31 120 -89 151 -155 21 -45 21 -58 24
                    -600 3 -622 3 -620 -68 -709 -28 -36 -58 -60 -107 -84 -60 -29 -77 -33 -148
                    -32 -66 0 -89 5 -130 26 -64 34 -128 100 -157 163 -23 50 -23 51 -26 585 -2
                    388 0 550 9 590 23 107 109 202 213 236 65 22 174 12 239 -20z"></path><path d="M1483 2482 c-29 -4 -63 -48 -63 -79 0 -33 257 -631 283 -660 13 -15
                    32 -23 53 -23 20 0 42 9 57 23 29 26 287 621 287 661 0 37 -39 77 -77 78 -60
                    2 -73 -17 -168 -241 -49 -116 -92 -211 -95 -211 -3 0 -43 89 -89 198 -46 108
                    -90 207 -97 218 -15 25 -58 42 -91 36z"></path><path d="M2324 2475 c-52 -21 -54 -39 -54 -380 l0 -313 26 -31 c33 -40 89 -43
                    122 -8 22 23 22 28 22 358 0 335 0 336 -22 356 -31 27 -59 33 -94 18z"></path><path d="M2672 2479 c-23 -7 -38 -20 -49 -44 -16 -33 -16 -37 0 -70 20 -43 69
                    -58 173 -53 l74 3 0 -273 0 -273 25 -24 c15 -15 36 -25 54 -25 87 0 91 16 91
                    330 l0 260 78 0 c110 0 150 13 168 56 12 29 12 39 0 68 -11 27 -23 37 -53 45
                    -47 13 -515 13 -561 0z"></path><path d="M1725 1398 c-32 -17 -45 -39 -45 -79 0 -29 6 -42 26 -58 26 -21 35
                    -21 650 -21 342 0 630 3 639 6 19 8 45 55 45 84 0 12 -13 35 -29 51 l-29 29
                    -619 0 c-428 -1 -624 -4 -638 -12z"></path></g></svg>